<svg xmlns="http://www.w3.org/2000/svg" xmlns:xlink="http://www.w3.org/1999/xlink" width="500" zoomAndPan="magnify" viewBox="0 0 375 374.999991" height="500" preserveAspectRatio="xMidYMid meet" version="1.0"><defs><g/><clipPath id="c47963da75"><path d="M 127.605469 162 L 158 162 L 158 178 L 127.605469 178 Z M 127.605469 162 " clip-rule="nonzero"/></clipPath><clipPath id="ad9c57e7e8"><path d="M 158 102 L 247.605469 102 L 247.605469 206.96875 L 158 206.96875 Z M 158 102 " clip-rule="nonzero"/></clipPath><clipPath id="ea07980185"><path d="M 212 89.21875 L 237 89.21875 L 237 114 L 212 114 Z M 212 89.21875 " clip-rule="nonzero"/></clipPath></defs><g clip-path="url(#c47963da75)"><path fill="#399b53" d="M 134.128906 162.253906 L 127.652344 172.777344 C 139.726562 170.875 149.550781 172.503906 157.101562 177.675781 C 151.613281 170.40625 143.953125 165.261719 134.121094 162.253906 Z M 134.128906 162.253906 " fill-opacity="1" fill-rule="evenodd"/></g><path fill="#ffffff" d="M 128.796875 156.742188 C 142.835938 158.625 153.738281 165.503906 161.488281 177.375 C 159.550781 165.386719 153.464844 155.84375 143.210938 148.71875 Z M 128.796875 156.742188 " fill-opacity="1" fill-rule="evenodd"/><path fill="#399b53" d="M 135.902344 137.042969 C 155.046875 149.363281 165.421875 166.316406 167.023438 187.886719 C 170.222656 170.875 165.449219 155.628906 152.71875 142.148438 C 163.386719 139.09375 171.605469 131.871094 177.367188 120.480469 C 196.378906 153.507812 190.320312 179.902344 159.195312 199.667969 C 198.617188 186.042969 204.539062 144.5 176.957031 107.558594 C 170.8125 128.082031 157.132812 137.914062 135.910156 137.042969 Z M 135.902344 137.042969 " fill-opacity="1" fill-rule="evenodd"/><g clip-path="url(#ad9c57e7e8)"><path fill="#ffffff" d="M 183.121094 102.980469 C 215.957031 144.433594 205.515625 191.390625 158.050781 206.96875 C 207.816406 204.097656 237.648438 172.386719 247.570312 111.832031 C 234.480469 129.539062 212.992188 126.589844 183.121094 102.980469 Z M 183.121094 102.980469 " fill-opacity="1" fill-rule="evenodd"/></g><g clip-path="url(#ea07980185)"><path fill="#ffffff" d="M 224.164062 113.179688 C 230.78125 113.179688 236.179688 107.800781 236.179688 101.195312 C 236.179688 94.59375 230.789062 89.207031 224.164062 89.207031 C 217.550781 89.207031 212.152344 94.585938 212.152344 101.195312 C 212.152344 107.792969 217.550781 113.179688 224.164062 113.179688 Z M 224.164062 113.179688 " fill-opacity="1" fill-rule="evenodd"/></g><path fill="#399b53" d="M 177.738281 151.957031 C 178.128906 152.640625 177.925781 153.3125 177.101562 153.96875 L 175.566406 151.304688 C 176.191406 151.195312 176.671875 151.195312 176.984375 151.292969 C 177.296875 151.402344 177.554688 151.617188 177.75 151.949219 Z M 171.859375 149.039062 C 171.222656 149.148438 170.761719 149.148438 170.460938 149.039062 C 170.15625 148.921875 169.921875 148.726562 169.753906 148.433594 C 169.578125 148.132812 169.53125 147.808594 169.617188 147.476562 C 169.707031 147.144531 169.949219 146.8125 170.378906 146.480469 L 171.867188 149.050781 Z M 180.4375 150.210938 C 179.824219 149.148438 179 148.484375 177.972656 148.21875 C 176.945312 147.957031 175.597656 148.042969 173.921875 148.484375 L 172.257812 145.613281 C 172.71875 145.476562 173.207031 145.398438 173.71875 145.371094 C 174.226562 145.339844 174.746094 145.339844 175.273438 145.378906 L 175.261719 142.421875 C 174.53125 142.351562 173.804688 142.371094 173.089844 142.46875 C 172.375 142.566406 171.652344 142.761719 170.898438 143.054688 L 170.242188 141.914062 L 168.257812 143.054688 L 168.894531 144.160156 C 168.335938 144.570312 167.867188 145.007812 167.484375 145.496094 C 167.101562 145.972656 166.828125 146.480469 166.671875 147.007812 C 166.507812 147.535156 166.457031 148.0625 166.515625 148.609375 C 166.574219 149.148438 166.761719 149.683594 167.0625 150.21875 C 167.386719 150.777344 167.757812 151.214844 168.167969 151.546875 C 168.589844 151.871094 169.058594 152.09375 169.578125 152.222656 C 170.097656 152.347656 170.683594 152.378906 171.328125 152.308594 C 171.976562 152.25 172.699219 152.113281 173.503906 151.910156 L 175.253906 154.933594 C 174.617188 155.148438 173.980469 155.265625 173.335938 155.285156 C 172.699219 155.304688 172.003906 155.277344 171.25 155.179688 L 171.015625 158.203125 C 171.925781 158.320312 172.867188 158.3125 173.804688 158.175781 C 174.753906 158.039062 175.675781 157.792969 176.554688 157.414062 L 177.671875 159.335938 L 179.65625 158.195312 L 178.570312 156.3125 C 179.148438 155.902344 179.617188 155.441406 180 154.953125 C 180.378906 154.464844 180.644531 153.957031 180.8125 153.429688 C 180.976562 152.90625 181.027344 152.378906 180.976562 151.832031 C 180.929688 151.285156 180.742188 150.746094 180.4375 150.21875 Z M 180.4375 150.210938 " fill-opacity="1" fill-rule="evenodd"/><g fill="#399b53" fill-opacity="1"><g transform="translate(76.871468, 255.208313)"><g><path d="M 32.640625 -18.71875 L 32.640625 -11.46875 C 31.773438 -7.5 29.882812 -4.492188 26.96875 -2.453125 C 24.050781 -0.410156 20.800781 0.609375 17.21875 0.609375 C 12.707031 0.609375 8.863281 -1.078125 5.6875 -4.453125 C 2.519531 -7.828125 0.9375 -11.90625 0.9375 -16.6875 C 0.9375 -21.539062 2.488281 -25.640625 5.59375 -28.984375 C 8.695312 -32.335938 12.570312 -34.015625 17.21875 -34.015625 C 22.644531 -34.015625 26.9375 -32.113281 30.09375 -28.3125 L 25.109375 -22.84375 C 23.328125 -25.707031 20.84375 -27.140625 17.65625 -27.140625 C 15.3125 -27.140625 13.304688 -26.117188 11.640625 -24.078125 C 9.984375 -22.035156 9.15625 -19.570312 9.15625 -16.6875 C 9.15625 -13.851562 9.984375 -11.429688 11.640625 -9.421875 C 13.304688 -7.410156 15.3125 -6.40625 17.65625 -6.40625 C 19.601562 -6.40625 21.296875 -6.988281 22.734375 -8.15625 C 24.179688 -9.332031 24.90625 -10.894531 24.90625 -12.84375 L 17.21875 -12.84375 L 17.21875 -18.71875 Z M 32.640625 -18.71875 "/></g></g></g><g fill="#399b53" fill-opacity="1"><g transform="translate(109.635838, 255.208313)"><g><path d="M 3.109375 -32.359375 C 3.953125 -33.191406 4.953125 -33.609375 6.109375 -33.609375 C 7.273438 -33.609375 8.273438 -33.191406 9.109375 -32.359375 C 9.953125 -31.523438 10.375 -30.523438 10.375 -29.359375 C 10.375 -28.203125 9.953125 -27.203125 9.109375 -26.359375 C 8.273438 -25.523438 7.273438 -25.109375 6.109375 -25.109375 C 4.953125 -25.109375 3.953125 -25.523438 3.109375 -26.359375 C 2.273438 -27.203125 1.859375 -28.203125 1.859375 -29.359375 C 1.859375 -30.523438 2.273438 -31.523438 3.109375 -32.359375 Z M 2.4375 -20.78125 L 2.4375 0 L 9.59375 0 L 9.59375 -20.78125 Z M 2.4375 -20.78125 "/></g></g></g><g fill="#399b53" fill-opacity="1"><g transform="translate(121.056749, 255.208313)"><g><path d="M 1.5 5.109375 L 7.375 2.234375 C 8.445312 4.015625 10.320312 4.90625 13 4.90625 C 14.238281 4.90625 15.390625 4.503906 16.453125 3.703125 C 17.523438 2.910156 18.0625 1.691406 18.0625 0.046875 L 18.0625 -1.5 C 16.789062 -0.09375 14.523438 0.609375 11.265625 0.609375 C 8.265625 0.609375 5.789062 -0.445312 3.84375 -2.5625 C 1.90625 -4.6875 0.9375 -7.285156 0.9375 -10.359375 C 0.9375 -13.441406 1.90625 -16.050781 3.84375 -18.1875 C 5.789062 -20.320312 8.265625 -21.390625 11.265625 -21.390625 C 13.929688 -21.390625 16.15625 -20.5625 17.9375 -18.90625 L 18.0625 -18.90625 L 18.0625 -20.78125 L 25.234375 -20.78125 L 25.234375 0.5625 C 25.234375 3.9375 24.113281 6.539062 21.875 8.375 C 19.632812 10.21875 16.675781 11.140625 13 11.140625 C 7.0625 11.140625 3.226562 9.128906 1.5 5.109375 Z M 9.9375 -13.890625 C 9.007812 -12.972656 8.546875 -11.796875 8.546875 -10.359375 C 8.546875 -8.929688 8.988281 -7.765625 9.875 -6.859375 C 10.769531 -5.960938 11.945312 -5.515625 13.40625 -5.515625 C 14.8125 -5.515625 15.960938 -5.972656 16.859375 -6.890625 C 17.765625 -7.804688 18.21875 -8.96875 18.21875 -10.375 C 18.21875 -11.800781 17.753906 -12.972656 16.828125 -13.890625 C 15.898438 -14.804688 14.757812 -15.265625 13.40625 -15.265625 C 12.03125 -15.265625 10.875 -14.804688 9.9375 -13.890625 Z M 9.9375 -13.890625 "/></g></g></g><g fill="#399b53" fill-opacity="1"><g transform="translate(147.908129, 255.208313)"><g><path d="M 23.453125 -9.390625 L 8.390625 -9.390625 C 8.390625 -7.929688 8.859375 -6.851562 9.796875 -6.15625 C 10.742188 -5.457031 11.769531 -5.109375 12.875 -5.109375 C 14.039062 -5.109375 14.957031 -5.257812 15.625 -5.5625 C 16.300781 -5.875 17.070312 -6.488281 17.9375 -7.40625 L 23.125 -4.8125 C 20.96875 -1.195312 17.378906 0.609375 12.359375 0.609375 C 9.222656 0.609375 6.535156 -0.460938 4.296875 -2.609375 C 2.054688 -4.753906 0.9375 -7.335938 0.9375 -10.359375 C 0.9375 -13.390625 2.054688 -15.984375 4.296875 -18.140625 C 6.535156 -20.304688 9.222656 -21.390625 12.359375 -21.390625 C 15.648438 -21.390625 18.328125 -20.4375 20.390625 -18.53125 C 22.453125 -16.625 23.484375 -13.90625 23.484375 -10.375 C 23.484375 -9.882812 23.472656 -9.554688 23.453125 -9.390625 Z M 8.59375 -13.359375 L 16.484375 -13.359375 C 16.316406 -14.441406 15.890625 -15.269531 15.203125 -15.84375 C 14.515625 -16.425781 13.632812 -16.71875 12.5625 -16.71875 C 11.363281 -16.71875 10.414062 -16.40625 9.71875 -15.78125 C 9.019531 -15.164062 8.644531 -14.359375 8.59375 -13.359375 Z M 8.59375 -13.359375 "/></g></g></g><g fill="#399b53" fill-opacity="1"><g transform="translate(171.519515, 255.208313)"><g><path d="M 2.4375 0 L 2.4375 -34.828125 L 9.59375 -34.828125 L 9.59375 0 Z M 2.4375 0 "/></g></g></g><g fill="#399b53" fill-opacity="1"><g transform="translate(182.737917, 255.208313)"><g/></g></g><g fill="#399b53" fill-opacity="1"><g transform="translate(192.984338, 255.208313)"><g><path d="M 2.4375 -33.40625 L 12.796875 -33.40625 C 15.929688 -33.40625 18.425781 -32.738281 20.28125 -31.40625 C 22.144531 -30.070312 23.078125 -27.90625 23.078125 -24.90625 C 23.078125 -21.5625 21.6875 -19.171875 18.90625 -17.734375 C 23.664062 -16.898438 26.046875 -14.09375 26.046875 -9.3125 C 26.046875 -6.507812 25.070312 -4.253906 23.125 -2.546875 C 21.175781 -0.847656 18.503906 0 15.109375 0 L 2.4375 0 Z M 10.046875 -20.328125 L 10.65625 -20.328125 C 12.351562 -20.328125 13.617188 -20.625 14.453125 -21.21875 C 15.296875 -21.8125 15.71875 -22.785156 15.71875 -24.140625 C 15.71875 -26.410156 14.03125 -27.546875 10.65625 -27.546875 L 10.046875 -27.546875 Z M 10.046875 -5.875 L 12.4375 -5.875 C 16.15625 -5.875 18.015625 -7.113281 18.015625 -9.59375 C 18.015625 -11.082031 17.550781 -12.148438 16.625 -12.796875 C 15.695312 -13.441406 14.300781 -13.765625 12.4375 -13.765625 L 10.046875 -13.765625 Z M 10.046875 -5.875 "/></g></g></g><g fill="#399b53" fill-opacity="1"><g transform="translate(219.147224, 255.208313)"><g><path d="M 3.84375 -2.5625 C 1.90625 -4.6875 0.9375 -7.285156 0.9375 -10.359375 C 0.9375 -13.441406 1.90625 -16.050781 3.84375 -18.1875 C 5.789062 -20.320312 8.265625 -21.390625 11.265625 -21.390625 C 14.015625 -21.390625 16.28125 -20.523438 18.0625 -18.796875 L 18.0625 -20.78125 L 25.234375 -20.78125 L 25.234375 0 L 18.140625 0 L 18.140625 -2.34375 L 18.0625 -2.34375 C 16.28125 -0.375 14.015625 0.609375 11.265625 0.609375 C 8.265625 0.609375 5.789062 -0.445312 3.84375 -2.5625 Z M 9.9375 -13.890625 C 9.007812 -12.972656 8.546875 -11.796875 8.546875 -10.359375 C 8.546875 -8.929688 8.988281 -7.765625 9.875 -6.859375 C 10.769531 -5.960938 11.945312 -5.515625 13.40625 -5.515625 C 14.8125 -5.515625 15.960938 -5.972656 16.859375 -6.890625 C 17.765625 -7.804688 18.21875 -8.96875 18.21875 -10.375 C 18.21875 -11.800781 17.753906 -12.972656 16.828125 -13.890625 C 15.898438 -14.804688 14.757812 -15.265625 13.40625 -15.265625 C 12.03125 -15.265625 10.875 -14.804688 9.9375 -13.890625 Z M 9.9375 -13.890625 "/></g></g></g><g fill="#399b53" fill-opacity="1"><g transform="translate(245.998609, 255.208313)"><g><path d="M 2.4375 0 L 2.4375 -20.78125 L 9.59375 -20.78125 L 9.59375 -18.59375 L 9.671875 -18.59375 C 11.535156 -20.457031 13.523438 -21.390625 15.640625 -21.390625 C 16.660156 -21.390625 17.675781 -21.253906 18.6875 -20.984375 C 19.695312 -20.710938 20.664062 -20.289062 21.59375 -19.71875 C 22.53125 -19.15625 23.289062 -18.351562 23.875 -17.3125 C 24.457031 -16.269531 24.75 -15.0625 24.75 -13.6875 L 24.75 0 L 17.578125 0 L 17.578125 -11.75 C 17.578125 -12.820312 17.234375 -13.765625 16.546875 -14.578125 C 15.859375 -15.390625 14.957031 -15.796875 13.84375 -15.796875 C 12.769531 -15.796875 11.789062 -15.375 10.90625 -14.53125 C 10.03125 -13.695312 9.59375 -12.769531 9.59375 -11.75 L 9.59375 0 Z M 2.4375 0 "/></g></g></g><g fill="#399b53" fill-opacity="1"><g transform="translate(271.959003, 255.208313)"><g><path d="M 26.15625 -20.78125 L 16.28125 -10.859375 L 27.140625 0 L 17.90625 0 L 9.59375 -8.296875 L 9.59375 0 L 2.4375 0 L 2.4375 -34.828125 L 9.59375 -34.828125 L 9.59375 -13.53125 L 16.84375 -20.78125 Z M 26.15625 -20.78125 "/></g></g></g><g fill="#399b53" fill-opacity="1"><g transform="translate(74.615554, 282.951403)"><g><path d="M 6.1875 0 L 5.859375 -4.078125 L 5.828125 -4.078125 L 4.40625 -0.046875 L 3.484375 -0.046875 L 2.0625 -4.078125 L 2.03125 -4.078125 L 1.703125 0 L 0.140625 0 L 0.75 -6.890625 L 2.421875 -6.890625 L 3.953125 -2.90625 L 5.46875 -6.890625 L 7.140625 -6.890625 L 7.765625 0 Z M 6.1875 0 "/></g></g></g><g fill="#399b53" fill-opacity="1"><g transform="translate(87.314568, 282.951403)"><g><path d="M 4 -6.890625 L 6.78125 0 L 5.09375 0 L 4.578125 -1.375 L 1.953125 -1.375 L 1.453125 0 L -0.234375 0 L 2.546875 -6.890625 Z M 4.046875 -2.75 L 3.28125 -4.75 L 3.265625 -4.75 L 2.5 -2.75 Z M 4.046875 -2.75 "/></g></g></g><g fill="#399b53" fill-opacity="1"><g transform="translate(98.661328, 282.951403)"><g><path d="M 6.765625 0 L 4.609375 0 L 2.0625 -2.921875 L 2.0625 0 L 0.5 0 L 0.5 -6.890625 L 2.0625 -6.890625 L 2.0625 -4.078125 L 4.4375 -6.890625 L 6.328125 -6.890625 L 3.5625 -3.625 Z M 6.765625 0 "/></g></g></g><g fill="#399b53" fill-opacity="1"><g transform="translate(110.033128, 282.951403)"><g><path d="M 4.4375 -6.890625 L 4.4375 -5.5 L 2.0625 -5.5 L 2.0625 -4.140625 L 4.34375 -4.140625 L 4.34375 -2.765625 L 2.0625 -2.765625 L 2.0625 -1.375 L 4.4375 -1.375 L 4.4375 0 L 0.5 0 L 0.5 -6.890625 Z M 4.4375 -6.890625 "/></g></g></g><g fill="#399b53" fill-opacity="1"><g transform="translate(119.67704, 282.951403)"><g/></g></g><g fill="#399b53" fill-opacity="1"><g transform="translate(126.758336, 282.951403)"><g><path d="M 6.1875 0 L 5.859375 -4.078125 L 5.828125 -4.078125 L 4.40625 -0.046875 L 3.484375 -0.046875 L 2.0625 -4.078125 L 2.03125 -4.078125 L 1.703125 0 L 0.140625 0 L 0.75 -6.890625 L 2.421875 -6.890625 L 3.953125 -2.90625 L 5.46875 -6.890625 L 7.140625 -6.890625 L 7.765625 0 Z M 6.1875 0 "/></g></g></g><g fill="#399b53" fill-opacity="1"><g transform="translate(139.457349, 282.951403)"><g><path d="M 0.1875 -3.453125 C 0.1875 -4.441406 0.523438 -5.28125 1.203125 -5.96875 C 1.890625 -6.664062 2.707031 -7.015625 3.65625 -7.015625 C 4.625 -7.015625 5.441406 -6.671875 6.109375 -5.984375 C 6.785156 -5.296875 7.125 -4.453125 7.125 -3.453125 C 7.125 -2.441406 6.789062 -1.59375 6.125 -0.90625 C 5.46875 -0.21875 4.644531 0.125 3.65625 0.125 C 2.65625 0.125 1.828125 -0.210938 1.171875 -0.890625 C 0.515625 -1.578125 0.1875 -2.429688 0.1875 -3.453125 Z M 1.890625 -3.453125 C 1.890625 -3.085938 1.941406 -2.753906 2.046875 -2.453125 C 2.160156 -2.160156 2.351562 -1.910156 2.625 -1.703125 C 2.90625 -1.492188 3.25 -1.390625 3.65625 -1.390625 C 4.238281 -1.390625 4.679688 -1.585938 4.984375 -1.984375 C 5.285156 -2.390625 5.4375 -2.878906 5.4375 -3.453125 C 5.4375 -4.003906 5.28125 -4.484375 4.96875 -4.890625 C 4.664062 -5.296875 4.226562 -5.5 3.65625 -5.5 C 3.09375 -5.5 2.65625 -5.296875 2.34375 -4.890625 C 2.039062 -4.484375 1.890625 -4.003906 1.890625 -3.453125 Z M 1.890625 -3.453125 "/></g></g></g><g fill="#399b53" fill-opacity="1"><g transform="translate(151.580402, 282.951403)"><g><path d="M 2.0625 -4.265625 L 2.0625 0 L 0.5 0 L 0.5 -6.890625 L 2.0625 -6.890625 L 4.8125 -2.609375 L 4.828125 -2.609375 L 4.828125 -6.890625 L 6.390625 -6.890625 L 6.390625 0 L 4.828125 0 L 2.078125 -4.265625 Z M 2.0625 -4.265625 "/></g></g></g><g fill="#399b53" fill-opacity="1"><g transform="translate(163.277743, 282.951403)"><g><path d="M 4.4375 -6.890625 L 4.4375 -5.5 L 2.0625 -5.5 L 2.0625 -4.140625 L 4.34375 -4.140625 L 4.34375 -2.765625 L 2.0625 -2.765625 L 2.0625 -1.375 L 4.4375 -1.375 L 4.4375 0 L 0.5 0 L 0.5 -6.890625 Z M 4.4375 -6.890625 "/></g></g></g><g fill="#399b53" fill-opacity="1"><g transform="translate(172.921655, 282.951403)"><g><path d="M -0.25 -6.890625 L 1.640625 -6.890625 L 3.078125 -4.6875 L 4.5 -6.890625 L 6.390625 -6.890625 L 3.859375 -3.09375 L 3.859375 0 L 2.28125 0 L 2.28125 -3.09375 Z M -0.25 -6.890625 "/></g></g></g><g fill="#399b53" fill-opacity="1"><g transform="translate(183.867746, 282.951403)"><g><path d="M 1.453125 -1.78125 C 1.722656 -1.78125 1.945312 -1.6875 2.125 -1.5 C 2.3125 -1.3125 2.40625 -1.085938 2.40625 -0.828125 C 2.40625 -0.00390625 1.941406 0.789062 1.015625 1.5625 L 0.578125 1.21875 C 0.617188 1.1875 0.664062 1.132812 0.71875 1.0625 C 0.78125 1 0.867188 0.863281 0.984375 0.65625 C 1.097656 0.457031 1.175781 0.253906 1.21875 0.046875 C 1.007812 -0.00390625 0.835938 -0.109375 0.703125 -0.265625 C 0.566406 -0.421875 0.5 -0.609375 0.5 -0.828125 C 0.5 -1.085938 0.59375 -1.3125 0.78125 -1.5 C 0.96875 -1.6875 1.191406 -1.78125 1.453125 -1.78125 Z M 1.453125 -1.78125 "/></g></g></g><g fill="#399b53" fill-opacity="1"><g transform="translate(191.583436, 282.951403)"><g/></g></g><g fill="#399b53" fill-opacity="1"><g transform="translate(198.664732, 282.951403)"><g><path d="M 2.0625 -4.265625 L 2.0625 0 L 0.5 0 L 0.5 -6.890625 L 2.0625 -6.890625 L 4.8125 -2.609375 L 4.828125 -2.609375 L 4.828125 -6.890625 L 6.390625 -6.890625 L 6.390625 0 L 4.828125 0 L 2.078125 -4.265625 Z M 2.0625 -4.265625 "/></g></g></g><g fill="#399b53" fill-opacity="1"><g transform="translate(210.362081, 282.951403)"><g><path d="M 0.1875 -3.453125 C 0.1875 -4.441406 0.523438 -5.28125 1.203125 -5.96875 C 1.890625 -6.664062 2.707031 -7.015625 3.65625 -7.015625 C 4.625 -7.015625 5.441406 -6.671875 6.109375 -5.984375 C 6.785156 -5.296875 7.125 -4.453125 7.125 -3.453125 C 7.125 -2.441406 6.789062 -1.59375 6.125 -0.90625 C 5.46875 -0.21875 4.644531 0.125 3.65625 0.125 C 2.65625 0.125 1.828125 -0.210938 1.171875 -0.890625 C 0.515625 -1.578125 0.1875 -2.429688 0.1875 -3.453125 Z M 1.890625 -3.453125 C 1.890625 -3.085938 1.941406 -2.753906 2.046875 -2.453125 C 2.160156 -2.160156 2.351562 -1.910156 2.625 -1.703125 C 2.90625 -1.492188 3.25 -1.390625 3.65625 -1.390625 C 4.238281 -1.390625 4.679688 -1.585938 4.984375 -1.984375 C 5.285156 -2.390625 5.4375 -2.878906 5.4375 -3.453125 C 5.4375 -4.003906 5.28125 -4.484375 4.96875 -4.890625 C 4.664062 -5.296875 4.226562 -5.5 3.65625 -5.5 C 3.09375 -5.5 2.65625 -5.296875 2.34375 -4.890625 C 2.039062 -4.484375 1.890625 -4.003906 1.890625 -3.453125 Z M 1.890625 -3.453125 "/></g></g></g><g fill="#399b53" fill-opacity="1"><g transform="translate(222.485143, 282.951403)"><g><path d="M 0.0625 -5.5 L 0.0625 -6.890625 L 4.90625 -6.890625 L 4.90625 -5.5 L 3.265625 -5.5 L 3.265625 0 L 1.703125 0 L 1.703125 -5.5 Z M 0.0625 -5.5 "/></g></g></g><g fill="#399b53" fill-opacity="1"><g transform="translate(232.262621, 282.951403)"><g/></g></g><g fill="#399b53" fill-opacity="1"><g transform="translate(239.343918, 282.951403)"><g><path d="M 0.5 -6.890625 L 2.5 -6.890625 C 3.457031 -6.890625 4.273438 -6.5625 4.953125 -5.90625 C 5.628906 -5.25 5.96875 -4.429688 5.96875 -3.453125 C 5.96875 -2.453125 5.628906 -1.625 4.953125 -0.96875 C 4.273438 -0.320312 3.457031 0 2.5 0 L 0.5 0 Z M 2.0625 -1.40625 L 2.3125 -1.40625 C 2.882812 -1.40625 3.351562 -1.597656 3.71875 -1.984375 C 4.082031 -2.367188 4.265625 -2.851562 4.265625 -3.4375 C 4.265625 -4.019531 4.082031 -4.503906 3.71875 -4.890625 C 3.351562 -5.285156 2.882812 -5.484375 2.3125 -5.484375 L 2.0625 -5.484375 Z M 2.0625 -1.40625 "/></g></g></g><g fill="#399b53" fill-opacity="1"><g transform="translate(250.306703, 282.951403)"><g><path d="M 0.5 -6.890625 L 2.96875 -6.890625 C 3.625 -6.890625 4.160156 -6.710938 4.578125 -6.359375 C 4.992188 -6.003906 5.203125 -5.5 5.203125 -4.84375 C 5.203125 -4.332031 5.078125 -3.90625 4.828125 -3.5625 C 4.578125 -3.21875 4.234375 -2.976562 3.796875 -2.84375 L 6.171875 0 L 4.171875 0 L 2.0625 -2.71875 L 2.0625 0 L 0.5 0 Z M 2.0625 -3.828125 L 2.25 -3.828125 C 2.394531 -3.828125 2.515625 -3.828125 2.609375 -3.828125 C 2.710938 -3.835938 2.828125 -3.859375 2.953125 -3.890625 C 3.085938 -3.929688 3.191406 -3.976562 3.265625 -4.03125 C 3.347656 -4.09375 3.414062 -4.179688 3.46875 -4.296875 C 3.519531 -4.421875 3.546875 -4.566406 3.546875 -4.734375 C 3.546875 -4.898438 3.519531 -5.039062 3.46875 -5.15625 C 3.414062 -5.269531 3.347656 -5.359375 3.265625 -5.421875 C 3.191406 -5.484375 3.085938 -5.53125 2.953125 -5.5625 C 2.828125 -5.59375 2.710938 -5.609375 2.609375 -5.609375 C 2.515625 -5.617188 2.394531 -5.625 2.25 -5.625 L 2.0625 -5.625 Z M 2.0625 -3.828125 "/></g></g></g><g fill="#399b53" fill-opacity="1"><g transform="translate(261.085853, 282.951403)"><g><path d="M 4.4375 -6.890625 L 4.4375 -5.5 L 2.0625 -5.5 L 2.0625 -4.140625 L 4.34375 -4.140625 L 4.34375 -2.765625 L 2.0625 -2.765625 L 2.0625 -1.375 L 4.4375 -1.375 L 4.4375 0 L 0.5 0 L 0.5 -6.890625 Z M 4.4375 -6.890625 "/></g></g></g><g fill="#399b53" fill-opacity="1"><g transform="translate(270.729773, 282.951403)"><g><path d="M 4 -6.890625 L 6.78125 0 L 5.09375 0 L 4.578125 -1.375 L 1.953125 -1.375 L 1.453125 0 L -0.234375 0 L 2.546875 -6.890625 Z M 4.046875 -2.75 L 3.28125 -4.75 L 3.265625 -4.75 L 2.5 -2.75 Z M 4.046875 -2.75 "/></g></g></g><g fill="#399b53" fill-opacity="1"><g transform="translate(282.07653, 282.951403)"><g><path d="M 6.1875 0 L 5.859375 -4.078125 L 5.828125 -4.078125 L 4.40625 -0.046875 L 3.484375 -0.046875 L 2.0625 -4.078125 L 2.03125 -4.078125 L 1.703125 0 L 0.140625 0 L 0.75 -6.890625 L 2.421875 -6.890625 L 3.953125 -2.90625 L 5.46875 -6.890625 L 7.140625 -6.890625 L 7.765625 0 Z M 6.1875 0 "/></g></g></g><g fill="#399b53" fill-opacity="1"><g transform="translate(294.775543, 282.951403)"><g><path d="M 3.03125 -7.015625 C 3.40625 -7.015625 3.769531 -6.957031 4.125 -6.84375 C 4.488281 -6.738281 4.753906 -6.632812 4.921875 -6.53125 L 5.171875 -6.359375 L 4.53125 -5.109375 C 4.488281 -5.140625 4.421875 -5.179688 4.328125 -5.234375 C 4.242188 -5.285156 4.078125 -5.351562 3.828125 -5.4375 C 3.585938 -5.53125 3.359375 -5.578125 3.140625 -5.578125 C 2.878906 -5.578125 2.675781 -5.519531 2.53125 -5.40625 C 2.394531 -5.300781 2.328125 -5.15625 2.328125 -4.96875 C 2.328125 -4.875 2.359375 -4.785156 2.421875 -4.703125 C 2.492188 -4.617188 2.609375 -4.53125 2.765625 -4.4375 C 2.929688 -4.351562 3.070312 -4.28125 3.1875 -4.21875 C 3.3125 -4.164062 3.503906 -4.082031 3.765625 -3.96875 C 4.210938 -3.78125 4.59375 -3.523438 4.90625 -3.203125 C 5.21875 -2.878906 5.375 -2.507812 5.375 -2.09375 C 5.375 -1.695312 5.300781 -1.351562 5.15625 -1.0625 C 5.019531 -0.769531 4.828125 -0.535156 4.578125 -0.359375 C 4.328125 -0.191406 4.050781 -0.0703125 3.75 0 C 3.445312 0.0820312 3.125 0.125 2.78125 0.125 C 2.476562 0.125 2.179688 0.09375 1.890625 0.03125 C 1.597656 -0.03125 1.351562 -0.101562 1.15625 -0.1875 C 0.96875 -0.28125 0.796875 -0.367188 0.640625 -0.453125 C 0.484375 -0.546875 0.367188 -0.625 0.296875 -0.6875 L 0.1875 -0.78125 L 0.96875 -2.109375 C 1.039062 -2.046875 1.132812 -1.972656 1.25 -1.890625 C 1.363281 -1.804688 1.566406 -1.691406 1.859375 -1.546875 C 2.160156 -1.398438 2.425781 -1.328125 2.65625 -1.328125 C 3.320312 -1.328125 3.65625 -1.550781 3.65625 -2 C 3.65625 -2.09375 3.628906 -2.179688 3.578125 -2.265625 C 3.535156 -2.347656 3.453125 -2.425781 3.328125 -2.5 C 3.210938 -2.582031 3.109375 -2.644531 3.015625 -2.6875 C 2.921875 -2.738281 2.769531 -2.8125 2.5625 -2.90625 C 2.351562 -3.007812 2.203125 -3.085938 2.109375 -3.140625 C 1.691406 -3.347656 1.367188 -3.601562 1.140625 -3.90625 C 0.910156 -4.21875 0.796875 -4.550781 0.796875 -4.90625 C 0.796875 -5.519531 1.019531 -6.023438 1.46875 -6.421875 C 1.925781 -6.816406 2.445312 -7.015625 3.03125 -7.015625 Z M 3.03125 -7.015625 "/></g></g></g></svg>