<svg xmlns="http://www.w3.org/2000/svg" xmlns:xlink="http://www.w3.org/1999/xlink" zoomAndPan="magnify" preserveAspectRatio="xMidYMid meet" version="1.0" viewBox="0.05 101.94 376.29 117.76"><defs><g/><clipPath id="bfefeedca9"><path d="M 30 115 L 120 115 L 120 219.699219 L 30 219.699219 Z M 30 115 " clip-rule="nonzero"/></clipPath><clipPath id="1eee0e1032"><path d="M 84 101.949219 L 109 101.949219 L 109 126 L 84 126 Z M 84 101.949219 " clip-rule="nonzero"/></clipPath></defs><path fill="#399b53" d="M 6.523438 174.988281 L 0.046875 185.507812 C 12.121094 183.605469 21.945312 185.234375 29.496094 190.40625 C 24.007812 183.136719 16.347656 177.992188 6.511719 174.988281 Z M 6.523438 174.988281 " fill-opacity="1" fill-rule="evenodd"/><path fill="#ffffff" d="M 1.191406 169.472656 C 15.230469 171.355469 26.132812 178.238281 33.878906 190.105469 C 31.941406 178.121094 25.855469 168.574219 15.601562 161.449219 Z M 1.191406 169.472656 " fill-opacity="1" fill-rule="evenodd"/><path fill="#399b53" d="M 8.292969 149.773438 C 27.441406 162.09375 37.8125 179.046875 39.417969 200.617188 C 42.617188 183.605469 37.84375 168.359375 25.113281 154.878906 C 35.777344 151.824219 43.996094 144.601562 49.761719 133.210938 C 68.773438 166.242188 62.714844 192.632812 31.589844 212.398438 C 71.011719 198.773438 76.933594 157.230469 49.351562 120.289062 C 43.203125 140.816406 29.527344 150.644531 8.304688 149.773438 Z M 8.292969 149.773438 " fill-opacity="1" fill-rule="evenodd"/><g clip-path="url(#bfefeedca9)"><path fill="#ffffff" d="M 55.515625 115.710938 C 88.351562 157.164062 77.910156 204.121094 30.445312 219.699219 C 80.210938 216.828125 110.042969 185.117188 119.964844 124.5625 C 106.871094 142.269531 85.386719 139.320312 55.515625 115.710938 Z M 55.515625 115.710938 " fill-opacity="1" fill-rule="evenodd"/></g><g clip-path="url(#1eee0e1032)"><path fill="#ffffff" d="M 96.558594 125.910156 C 103.171875 125.910156 108.574219 120.53125 108.574219 113.925781 C 108.574219 107.328125 103.183594 101.9375 96.558594 101.9375 C 89.945312 101.9375 84.542969 107.316406 84.542969 113.925781 C 84.542969 120.523438 89.945312 125.910156 96.558594 125.910156 Z M 96.558594 125.910156 " fill-opacity="1" fill-rule="evenodd"/></g><path fill="#399b53" d="M 50.132812 164.6875 C 50.523438 165.371094 50.316406 166.046875 49.496094 166.699219 L 47.960938 164.035156 C 48.585938 163.929688 49.066406 163.929688 49.378906 164.023438 C 49.691406 164.132812 49.945312 164.347656 50.140625 164.679688 Z M 44.253906 161.769531 C 43.617188 161.878906 43.15625 161.878906 42.851562 161.769531 C 42.550781 161.652344 42.316406 161.457031 42.148438 161.164062 C 41.972656 160.863281 41.921875 160.539062 42.011719 160.210938 C 42.097656 159.878906 42.34375 159.546875 42.773438 159.214844 L 44.261719 161.78125 Z M 52.832031 162.941406 C 52.214844 161.878906 51.394531 161.214844 50.367188 160.949219 C 49.339844 160.6875 47.988281 160.773438 46.316406 161.214844 L 44.652344 158.34375 C 45.113281 158.207031 45.601562 158.128906 46.109375 158.101562 C 46.621094 158.070312 47.136719 158.070312 47.667969 158.109375 L 47.65625 155.152344 C 46.921875 155.085938 46.199219 155.105469 45.484375 155.203125 C 44.769531 155.300781 44.046875 155.496094 43.292969 155.789062 L 42.636719 154.644531 L 40.652344 155.789062 L 41.289062 156.890625 C 40.730469 157.300781 40.261719 157.738281 39.878906 158.226562 C 39.496094 158.707031 39.222656 159.214844 39.066406 159.742188 C 38.898438 160.269531 38.851562 160.792969 38.910156 161.339844 C 38.96875 161.878906 39.152344 162.414062 39.457031 162.953125 C 39.78125 163.507812 40.152344 163.949219 40.5625 164.277344 C 40.984375 164.601562 41.453125 164.824219 41.972656 164.953125 C 42.492188 165.078125 43.078125 165.109375 43.722656 165.039062 C 44.371094 164.980469 45.09375 164.84375 45.894531 164.640625 L 47.648438 167.667969 C 47.011719 167.878906 46.375 167.996094 45.730469 168.015625 C 45.09375 168.035156 44.398438 168.007812 43.644531 167.910156 L 43.410156 170.9375 C 44.320312 171.054688 45.261719 171.042969 46.199219 170.90625 C 47.148438 170.769531 48.066406 170.527344 48.949219 170.144531 L 50.0625 172.066406 L 52.050781 170.925781 L 50.964844 169.042969 C 51.542969 168.632812 52.011719 168.171875 52.394531 167.6875 C 52.773438 167.199219 53.039062 166.691406 53.203125 166.164062 C 53.371094 165.636719 53.421875 165.109375 53.371094 164.5625 C 53.320312 164.015625 53.136719 163.480469 52.832031 162.953125 Z M 52.832031 162.941406 " fill-opacity="1" fill-rule="evenodd"/><g fill="#399b53" fill-opacity="1"><g transform="translate(109.704546, 191.151891)"><g><path d="M 39.171875 -22.453125 L 39.171875 -13.75 C 38.128906 -8.988281 35.859375 -5.382812 32.359375 -2.9375 C 28.859375 -0.488281 24.957031 0.734375 20.65625 0.734375 C 15.238281 0.734375 10.628906 -1.289062 6.828125 -5.34375 C 3.023438 -9.394531 1.125 -14.285156 1.125 -20.015625 C 1.125 -25.847656 2.984375 -30.769531 6.703125 -34.78125 C 10.429688 -38.800781 15.082031 -40.8125 20.65625 -40.8125 C 27.164062 -40.8125 32.316406 -38.53125 36.109375 -33.96875 L 30.125 -27.40625 C 27.988281 -30.84375 25.007812 -32.5625 21.1875 -32.5625 C 18.363281 -32.5625 15.957031 -31.335938 13.96875 -28.890625 C 11.976562 -26.441406 10.984375 -23.484375 10.984375 -20.015625 C 10.984375 -16.617188 11.976562 -13.710938 13.96875 -11.296875 C 15.957031 -8.878906 18.363281 -7.671875 21.1875 -7.671875 C 23.519531 -7.671875 25.550781 -8.375 27.28125 -9.78125 C 29.019531 -11.195312 29.890625 -13.070312 29.890625 -15.40625 L 20.65625 -15.40625 L 20.65625 -22.453125 Z M 39.171875 -22.453125 "/></g></g></g><g fill="#399b53" fill-opacity="1"><g transform="translate(149.015516, 191.151891)"><g><path d="M 3.734375 -38.8125 C 4.742188 -39.820312 5.941406 -40.328125 7.328125 -40.328125 C 8.722656 -40.328125 9.921875 -39.820312 10.921875 -38.8125 C 11.929688 -37.8125 12.4375 -36.613281 12.4375 -35.21875 C 12.4375 -33.832031 11.929688 -32.632812 10.921875 -31.625 C 9.921875 -30.625 8.722656 -30.125 7.328125 -30.125 C 5.941406 -30.125 4.742188 -30.625 3.734375 -31.625 C 2.734375 -32.632812 2.234375 -33.832031 2.234375 -35.21875 C 2.234375 -36.613281 2.734375 -37.8125 3.734375 -38.8125 Z M 2.921875 -24.921875 L 2.921875 0 L 11.515625 0 L 11.515625 -24.921875 Z M 2.921875 -24.921875 "/></g></g></g><g fill="#399b53" fill-opacity="1"><g transform="translate(162.718422, 191.151891)"><g><path d="M 1.796875 6.125 L 8.84375 2.671875 C 10.132812 4.804688 12.382812 5.875 15.59375 5.875 C 17.082031 5.875 18.46875 5.394531 19.75 4.4375 C 21.03125 3.488281 21.671875 2.023438 21.671875 0.046875 L 21.671875 -1.796875 C 20.148438 -0.109375 17.429688 0.734375 13.515625 0.734375 C 9.910156 0.734375 6.941406 -0.535156 4.609375 -3.078125 C 2.285156 -5.628906 1.125 -8.75 1.125 -12.4375 C 1.125 -16.132812 2.285156 -19.257812 4.609375 -21.8125 C 6.941406 -24.375 9.910156 -25.65625 13.515625 -25.65625 C 16.710938 -25.65625 19.382812 -24.664062 21.53125 -22.6875 L 21.671875 -22.6875 L 21.671875 -24.921875 L 30.28125 -24.921875 L 30.28125 0.6875 C 30.28125 4.726562 28.929688 7.847656 26.234375 10.046875 C 23.546875 12.253906 20 13.359375 15.59375 13.359375 C 8.46875 13.359375 3.867188 10.945312 1.796875 6.125 Z M 11.921875 -16.65625 C 10.804688 -15.5625 10.25 -14.15625 10.25 -12.4375 C 10.25 -10.71875 10.78125 -9.316406 11.84375 -8.234375 C 12.914062 -7.148438 14.328125 -6.609375 16.078125 -6.609375 C 17.765625 -6.609375 19.148438 -7.15625 20.234375 -8.25 C 21.328125 -9.351562 21.875 -10.75 21.875 -12.4375 C 21.875 -14.15625 21.3125 -15.5625 20.1875 -16.65625 C 19.070312 -17.757812 17.703125 -18.3125 16.078125 -18.3125 C 14.429688 -18.3125 13.046875 -17.757812 11.921875 -16.65625 Z M 11.921875 -16.65625 "/></g></g></g><g fill="#399b53" fill-opacity="1"><g transform="translate(194.934936, 191.151891)"><g><path d="M 28.140625 -11.28125 L 10.0625 -11.28125 C 10.0625 -9.53125 10.625 -8.234375 11.75 -7.390625 C 12.882812 -6.546875 14.117188 -6.125 15.453125 -6.125 C 16.847656 -6.125 17.945312 -6.304688 18.75 -6.671875 C 19.5625 -7.046875 20.488281 -7.785156 21.53125 -8.890625 L 27.75 -5.78125 C 25.15625 -1.4375 20.847656 0.734375 14.828125 0.734375 C 11.066406 0.734375 7.84375 -0.550781 5.15625 -3.125 C 2.46875 -5.707031 1.125 -8.8125 1.125 -12.4375 C 1.125 -16.0625 2.46875 -19.171875 5.15625 -21.765625 C 7.84375 -24.359375 11.066406 -25.65625 14.828125 -25.65625 C 18.773438 -25.65625 21.988281 -24.515625 24.46875 -22.234375 C 26.945312 -19.953125 28.1875 -16.6875 28.1875 -12.4375 C 28.1875 -11.851562 28.171875 -11.46875 28.140625 -11.28125 Z M 10.296875 -16.03125 L 19.78125 -16.03125 C 19.582031 -17.332031 19.070312 -18.328125 18.25 -19.015625 C 17.425781 -19.710938 16.363281 -20.0625 15.0625 -20.0625 C 13.632812 -20.0625 12.5 -19.6875 11.65625 -18.9375 C 10.820312 -18.195312 10.367188 -17.226562 10.296875 -16.03125 Z M 10.296875 -16.03125 "/></g></g></g><g fill="#399b53" fill-opacity="1"><g transform="translate(223.264078, 191.151891)"><g><path d="M 2.921875 0 L 2.921875 -41.796875 L 11.515625 -41.796875 L 11.515625 0 Z M 2.921875 0 "/></g></g></g><g fill="#399b53" fill-opacity="1"><g transform="translate(236.724012, 191.151891)"><g/></g></g><g fill="#399b53" fill-opacity="1"><g transform="translate(249.017756, 191.151891)"><g><path d="M 2.921875 -40.09375 L 15.359375 -40.09375 C 19.117188 -40.09375 22.113281 -39.289062 24.34375 -37.6875 C 26.582031 -36.082031 27.703125 -33.484375 27.703125 -29.890625 C 27.703125 -25.867188 26.03125 -23 22.6875 -21.28125 C 28.394531 -20.28125 31.25 -16.910156 31.25 -11.171875 C 31.25 -7.804688 30.082031 -5.101562 27.75 -3.0625 C 25.414062 -1.019531 22.207031 0 18.125 0 L 2.921875 0 Z M 12.046875 -24.390625 L 12.78125 -24.390625 C 14.820312 -24.390625 16.34375 -24.742188 17.34375 -25.453125 C 18.351562 -26.171875 18.859375 -27.34375 18.859375 -28.96875 C 18.859375 -31.6875 16.832031 -33.046875 12.78125 -33.046875 L 12.046875 -33.046875 Z M 12.046875 -7.046875 L 14.921875 -7.046875 C 19.390625 -7.046875 21.625 -8.535156 21.625 -11.515625 C 21.625 -13.296875 21.0625 -14.570312 19.9375 -15.34375 C 18.820312 -16.125 17.148438 -16.515625 14.921875 -16.515625 L 12.046875 -16.515625 Z M 12.046875 -7.046875 "/></g></g></g><g fill="#399b53" fill-opacity="1"><g transform="translate(280.408209, 191.151891)"><g><path d="M 4.609375 -3.078125 C 2.285156 -5.628906 1.125 -8.75 1.125 -12.4375 C 1.125 -16.132812 2.285156 -19.257812 4.609375 -21.8125 C 6.941406 -24.375 9.910156 -25.65625 13.515625 -25.65625 C 16.816406 -25.65625 19.535156 -24.617188 21.671875 -22.546875 L 21.671875 -24.921875 L 30.28125 -24.921875 L 30.28125 0 L 21.765625 0 L 21.765625 -2.8125 L 21.671875 -2.8125 C 19.535156 -0.445312 16.816406 0.734375 13.515625 0.734375 C 9.910156 0.734375 6.941406 -0.535156 4.609375 -3.078125 Z M 11.921875 -16.65625 C 10.804688 -15.5625 10.25 -14.15625 10.25 -12.4375 C 10.25 -10.71875 10.78125 -9.316406 11.84375 -8.234375 C 12.914062 -7.148438 14.328125 -6.609375 16.078125 -6.609375 C 17.765625 -6.609375 19.148438 -7.15625 20.234375 -8.25 C 21.328125 -9.351562 21.875 -10.75 21.875 -12.4375 C 21.875 -14.15625 21.3125 -15.5625 20.1875 -16.65625 C 19.070312 -17.757812 17.703125 -18.3125 16.078125 -18.3125 C 14.429688 -18.3125 13.046875 -17.757812 11.921875 -16.65625 Z M 11.921875 -16.65625 "/></g></g></g><g fill="#399b53" fill-opacity="1"><g transform="translate(312.624729, 191.151891)"><g><path d="M 2.921875 0 L 2.921875 -24.921875 L 11.515625 -24.921875 L 11.515625 -22.296875 L 11.609375 -22.296875 C 13.847656 -24.535156 16.226562 -25.65625 18.75 -25.65625 C 19.988281 -25.65625 21.210938 -25.492188 22.421875 -25.171875 C 23.640625 -24.847656 24.804688 -24.34375 25.921875 -23.65625 C 27.035156 -22.976562 27.941406 -22.015625 28.640625 -20.765625 C 29.335938 -19.523438 29.6875 -18.078125 29.6875 -16.421875 L 29.6875 0 L 21.09375 0 L 21.09375 -14.09375 C 21.09375 -15.382812 20.675781 -16.515625 19.84375 -17.484375 C 19.019531 -18.460938 17.945312 -18.953125 16.625 -18.953125 C 15.320312 -18.953125 14.144531 -18.445312 13.09375 -17.4375 C 12.039062 -16.4375 11.515625 -15.320312 11.515625 -14.09375 L 11.515625 0 Z M 2.921875 0 "/></g></g></g><g fill="#399b53" fill-opacity="1"><g transform="translate(343.772231, 191.151891)"><g><path d="M 31.390625 -24.921875 L 19.53125 -13.015625 L 32.5625 0 L 21.484375 0 L 11.515625 -9.96875 L 11.515625 0 L 2.921875 0 L 2.921875 -41.796875 L 11.515625 -41.796875 L 11.515625 -16.234375 L 20.21875 -24.921875 Z M 31.390625 -24.921875 "/></g></g></g></svg>